<svg width="100" height="100" viewBox="0 0 100 100" fill="none" xmlns="http://www.w3.org/2000/svg">
<rect x="8" y="8" width="5" height="5" fill="black"/>
<rect x="8" y="28" width="5" height="5" fill="black"/>
<rect x="8" y="48" width="5" height="5" fill="black"/>
<rect x="8" y="68" width="5" height="5" fill="black"/>
<rect x="8" y="88" width="5" height="5" fill="black"/>
<rect x="28" y="8" width="5" height="5" fill="black"/>
<rect x="28" y="28" width="5" height="5" fill="black"/>
<rect x="28" y="48" width="5" height="5" fill="black"/>
<rect x="28" y="68" width="5" height="5" fill="black"/>
<rect x="28" y="88" width="5" height="5" fill="black"/>
<rect x="48" y="8" width="5" height="5" fill="black"/>
<rect x="48" y="28" width="5" height="5" fill="black"/>
<rect x="48" y="48" width="5" height="5" fill="black"/>
<rect x="48" y="68" width="5" height="5" fill="black"/>
<rect x="48" y="88" width="5" height="5" fill="black"/>
<rect x="68" y="8" width="5" height="5" fill="black"/>
<rect x="68" y="28" width="5" height="5" fill="black"/>
<rect x="68" y="48" width="5" height="5" fill="black"/>
<rect x="68" y="68" width="5" height="5" fill="black"/>
<rect x="68" y="88" width="5" height="5" fill="black"/>
<rect x="88" y="8" width="5" height="5" fill="black"/>
<rect x="88" y="28" width="5" height="5" fill="black"/>
<rect x="88" y="48" width="5" height="5" fill="black"/>
<rect x="88" y="68" width="5" height="5" fill="black"/>
<rect x="88" y="88" width="5" height="5" fill="black"/>
</svg>
